<?xml version="1.0" standalone="no"?>
<!DOCTYPE svg PUBLIC "-//W3C//DTD SVG 20010904//EN"
 "http://www.w3.org/TR/2001/REC-SVG-20010904/DTD/svg10.dtd">
<svg version="1.0" xmlns="http://www.w3.org/2000/svg"
 width="500.000000pt" height="500.000000pt" viewBox="0 0 500.000000 500.000000"
 preserveAspectRatio="xMidYMid meet">
<metadata>
Created by potrace 1.14, written by Peter Selinger 2001-2017
</metadata>
<g transform="translate(0.000000,500.000000) scale(0.100000,-0.100000)"
fill="#000000" stroke="none">
<path d="M319 4978 c0 -13 -1 -723 0 -1578 0 -1425 2 -1691 16 -1761 3 -13 8
-42 11 -64 2 -22 7 -51 9 -65 7 -39 74 -240 96 -290 42 -93 64 -135 72 -138 4
-2 7 -9 7 -15 0 -11 71 -125 99 -159 6 -7 34 -42 63 -77 62 -78 140 -154 228
-226 68 -55 243 -175 256 -175 4 0 30 -14 58 -31 138 -85 525 -219 708 -244
15 -2 35 -6 45 -9 10 -3 43 -8 73 -11 30 -3 69 -8 85 -11 87 -15 570 -19 570
-4 0 1 14 3 30 4 33 4 115 15 155 22 14 2 43 7 65 9 106 14 438 118 555 173
30 15 57 27 60 27 13 1 160 85 235 134 177 114 296 227 471 444 7 9 10 17 6
17 -4 0 -2 4 4 8 28 19 167 287 178 344 2 12 12 40 20 61 9 20 23 70 32 110 8
39 17 81 20 92 8 37 16 90 18 121 2 16 5 34 8 40 4 5 6 744 6 1642 l1 1632
-40 0 c-21 0 -39 -3 -40 -7 0 -5 -2 -739 -4 -1633 -1 -894 -5 -1636 -8 -1650
-3 -14 -8 -50 -11 -80 -6 -52 -9 -71 -21 -129 -13 -65 -80 -246 -121 -326 -26
-49 -52 -100 -58 -112 -6 -13 -14 -23 -18 -23 -5 0 -8 -4 -8 -10 0 -16 -114
-161 -178 -226 -32 -32 -89 -86 -127 -119 -39 -33 -72 -63 -75 -66 -3 -3 -9
-8 -15 -10 -5 -2 -48 -29 -95 -60 -109 -71 -359 -199 -390 -199 -5 0 -21 -5
-37 -12 -15 -6 -35 -12 -43 -14 -8 -2 -23 -8 -35 -13 -18 -10 -140 -44 -205
-57 -14 -3 -44 -9 -67 -14 -23 -6 -63 -12 -90 -15 -26 -3 -59 -8 -73 -10 -32
-6 -93 -14 -150 -20 -104 -11 -474 -4 -520 10 -8 2 -42 7 -75 10 -73 7 -208
31 -255 46 -19 5 -48 13 -65 16 -34 6 -259 80 -283 93 -10 5 -62 30 -117 56
-90 42 -232 120 -245 134 -3 3 -28 22 -57 42 -65 46 -89 66 -124 100 -16 16
-31 28 -35 28 -3 0 -27 23 -52 52 -26 29 -62 67 -80 86 -17 19 -32 38 -32 42
0 5 -6 13 -12 17 -13 8 -21 19 -56 76 -9 16 -24 37 -32 47 -8 9 -31 48 -50 86
-19 38 -38 71 -42 72 -5 2 -8 9 -8 15 0 6 -12 40 -26 76 -32 77 -64 192 -79
277 -13 72 -15 108 -21 294 -5 195 -5 236 -1 313 1 26 -1 47 -5 47 -3 0 -4 8
-2 18 8 32 9 142 2 142 -4 0 -5 7 -2 15 9 21 10 945 2 945 -4 0 -5 7 -1 16 8
21 10 784 1 784 -3 0 -4 8 -2 18 8 34 9 142 1 142 -5 0 -5 5 -1 11 5 8 9 513
5 657 -1 19 -6 22 -41 22 -35 0 -40 -3 -41 -22z"/>
<path d="M2166 4722 c-2 -1 -38 -4 -81 -6 -42 -2 -80 -7 -84 -12 -3 -5 -50
-44 -104 -87 -109 -87 -477 -444 -477 -463 0 -12 18 -29 95 -89 44 -34 116
-94 158 -130 15 -14 31 -25 36 -25 5 0 18 -10 28 -22 10 -13 56 -54 103 -93
47 -38 87 -73 88 -77 2 -5 8 -8 12 -8 5 0 27 -17 49 -37 21 -21 48 -45 59 -53
11 -8 38 -31 61 -50 23 -19 50 -42 60 -50 10 -8 38 -32 62 -52 24 -20 145
-120 269 -222 124 -103 237 -197 251 -211 14 -14 31 -25 38 -25 17 0 29 -39
24 -75 -9 -56 7 -54 -278 -40 -77 3 -171 8 -209 11 l-69 4 -115 112 c-63 62
-155 152 -204 201 -49 48 -95 87 -103 87 -8 0 -24 -10 -37 -22 -28 -28 -79
-71 -138 -118 -24 -19 -51 -42 -60 -50 -8 -8 -53 -46 -98 -83 -45 -38 -79 -73
-76 -78 3 -5 28 -31 56 -57 122 -116 243 -232 370 -357 132 -130 138 -135 180
-136 49 0 386 2 759 5 l255 2 42 34 c23 18 42 37 42 42 0 4 4 8 9 8 14 0 157
131 379 347 l115 113 -30 27 c-48 46 -102 93 -218 193 -147 127 -163 141 -195
170 -16 14 -49 43 -75 65 -26 22 -60 51 -75 65 -15 14 -56 50 -90 80 -34 30
-75 66 -90 80 -26 24 -112 99 -156 137 -12 10 -52 46 -90 79 -38 34 -84 74
-102 89 -19 16 -46 40 -60 54 -15 14 -58 53 -97 86 -78 68 -145 131 -145 138
0 4 439 2 535 -2 11 -1 36 -15 55 -32 44 -39 287 -268 352 -332 53 -53 60 -53
114 1 25 25 70 64 183 157 13 11 36 32 51 48 16 15 31 27 33 27 7 0 87 79 87
86 0 2 -34 37 -77 77 -42 40 -166 161 -277 270 -110 108 -205 198 -211 199
-17 3 -886 3 -889 0z"/>
<path d="M669 2163 c-22 -5 -48 -54 -50 -94 -2 -48 12 -77 66 -134 57 -60 69
-88 52 -115 -6 -11 -17 -20 -24 -20 -20 0 -43 30 -43 56 0 28 -24 42 -43 26
-19 -16 -9 -72 19 -107 19 -24 31 -30 64 -30 51 0 77 26 88 87 11 58 -3 96
-55 143 -21 19 -41 35 -44 35 -4 0 -12 13 -19 29 -10 25 -9 34 3 51 l15 22 21
-21 c12 -12 21 -30 21 -41 0 -14 7 -20 23 -20 32 0 35 5 27 49 -11 62 -63 98
-121 84z"/>
<path d="M2763 2158 c-18 -25 -10 -53 17 -53 20 0 25 5 25 25 1 36 -24 52 -42
28z"/>
<path d="M3422 2158 c-17 -21 -8 -53 16 -56 12 -2 23 1 23 7 5 43 2 56 -12 59
-9 2 -21 -3 -27 -10z"/>
<path d="M2500 1953 l0 -203 28 0 c26 0 29 4 30 34 1 19 2 38 3 42 1 5 1 11 0
14 -1 3 -3 38 -5 78 -3 79 8 104 19 44 4 -20 11 -43 17 -49 6 -7 8 -13 5 -13
-2 0 5 -33 17 -72 21 -68 25 -73 51 -73 l28 0 1 185 c1 102 0 193 -2 203 -3
12 -12 16 -31 14 l-26 -4 1 -134 c2 -125 1 -131 -11 -89 -68 235 -64 225 -99
225 l-26 1 0 -203z"/>
<path d="M3857 2143 c-3 -10 -4 -101 -3 -203 l1 -185 80 -3 81 -3 2 30 c2 29
1 30 -50 33 l-53 3 -5 170 c-5 165 -6 170 -27 173 -14 2 -23 -3 -26 -15z"/>
<path d="M4271 2152 c1 -4 1 -31 0 -61 -1 -46 -3 -52 -16 -41 -23 19 -61 4
-75 -30 -20 -48 -17 -213 4 -245 20 -31 40 -40 64 -30 9 4 30 8 47 9 l30 1 0
193 c0 119 -4 196 -10 200 -15 10 -45 13 -44 4z m-3 -246 c3 -93 -8 -127 -34
-105 -10 8 -14 36 -14 89 0 90 6 112 29 108 13 -3 17 -19 19 -92z"/>
<path d="M4068 2133 c-2 -10 -5 -44 -7 -66 0 -10 -5 -16 -9 -13 -12 7 -9 -44
3 -52 6 -4 10 -52 10 -112 -1 -58 2 -112 7 -121 9 -19 41 -30 58 -19 13 8 10
41 -4 52 -16 11 -15 186 0 199 17 14 18 41 2 58 -7 6 -14 22 -14 34 -3 44 -4
47 -24 47 -11 0 -21 -3 -22 -7z"/>
<path d="M1504 2059 c-12 -4 -24 -12 -28 -17 -11 -18 -16 -71 -6 -77 14 -8 50
13 47 28 -1 7 7 12 18 12 13 0 21 -8 23 -22 2 -16 -7 -29 -36 -48 -49 -32 -67
-71 -59 -127 8 -56 40 -77 87 -57 3 1 19 2 35 3 l30 1 1 125 c0 69 -2 133 -4
143 -8 31 -68 52 -108 36z m58 -210 c-1 -44 -18 -65 -39 -47 -20 16 -16 49 9
75 27 28 31 25 30 -28z"/>
<path d="M1759 2056 c-16 -8 -32 -10 -42 -5 -38 22 -43 5 -43 -149 l1 -147 26
-3 26 -3 1 88 c0 48 1 105 1 126 1 40 26 62 42 36 5 -8 9 -67 9 -131 l0 -118
25 0 c25 0 25 1 26 83 1 45 0 98 -1 118 -1 22 5 41 15 49 30 25 39 -3 41 -123
2 -139 0 -129 27 -125 22 3 22 6 23 138 1 107 -2 139 -14 153 -17 19 -62 23
-79 6 -8 -8 -17 -7 -35 5 -20 13 -27 13 -49 2z"/>
<path d="M2028 2058 c-28 -10 -49 -52 -39 -78 8 -20 41 -25 41 -7 0 21 25 38
44 31 27 -10 18 -32 -28 -66 -25 -18 -49 -42 -54 -53 -15 -33 -6 -117 14 -132
21 -15 50 -17 59 -4 3 5 21 7 41 4 l36 -6 -4 141 c-3 152 -7 164 -58 175 -14
3 -37 1 -52 -5z m58 -209 c-3 -42 -23 -66 -41 -48 -16 16 -12 52 9 76 25 30
35 21 32 -28z"/>
<path d="M3552 2054 c-18 -9 -30 -19 -28 -21 3 -3 1 -15 -4 -27 -9 -25 -2 -43
18 -40 6 1 16 2 21 3 5 0 11 10 14 22 7 27 41 22 45 -7 2 -15 -9 -28 -38 -48
-23 -15 -47 -41 -55 -59 -17 -40 -10 -97 15 -122 17 -17 24 -18 50 -8 16 6 39
9 51 6 12 -3 24 -1 28 5 3 5 6 67 5 137 -1 110 -3 128 -20 145 -28 27 -64 32
-102 14z m69 -181 c2 -44 -1 -57 -18 -70 -21 -17 -33 -8 -33 26 0 26 27 71 43
71 4 0 8 -12 8 -27z"/>
<path d="M856 2052 c-11 -18 -5 -258 7 -282 16 -31 43 -37 68 -14 11 10 19 12
19 6 0 -7 11 -12 25 -12 25 0 25 1 26 95 0 52 1 118 1 147 0 38 -4 55 -15 62
-29 18 -36 -6 -38 -127 -1 -95 -4 -120 -16 -124 -26 -10 -33 19 -33 137 0 108
-1 116 -20 117 -11 1 -22 -1 -24 -5z"/>
<path d="M1056 1917 c1 -176 0 -167 24 -167 24 0 29 20 28 115 0 138 0 137 25
133 24 -3 24 -2 27 -155 2 -90 3 -93 25 -93 23 0 23 2 24 131 2 104 -1 136
-14 155 -16 25 -58 33 -70 14 -4 -7 -12 -7 -18 -2 -7 5 -21 9 -32 9 -19 1 -20
-5 -19 -140z"/>
<path d="M1284 2046 c-26 -29 -31 -56 -29 -153 3 -118 18 -156 60 -149 14 3
29 7 34 10 15 9 20 -6 10 -31 -9 -24 -43 -31 -54 -13 -9 15 -45 12 -45 -3 0
-26 37 -57 68 -57 41 0 82 48 83 98 7 279 1 324 -42 301 -11 -6 -20 -5 -24 1
-9 14 -48 12 -61 -4z m76 -147 c0 -86 -6 -109 -26 -109 -23 0 -34 36 -34 114
0 57 4 79 17 91 28 28 43 -5 43 -96z"/>
<path d="M2188 2054 c-7 -7 3 -43 29 -103 l19 -45 -27 -65 c-36 -83 -36 -93
-2 -89 20 2 29 11 38 38 l12 35 16 -37 c13 -30 22 -38 41 -38 15 0 26 2 26 5
0 5 -24 72 -40 110 -16 38 -19 54 -12 57 9 4 42 100 42 121 0 30 -41 14 -56
-22 -15 -37 -22 -37 -27 -2 -5 31 -42 53 -59 35z"/>
<path d="M2759 2053 c-5 -31 -3 -286 2 -295 3 -5 15 -8 25 -6 18 3 19 15 20
148 0 94 -3 148 -10 152 -14 10 -36 10 -37 1z"/>
<path d="M2883 2048 c-20 -26 -24 -55 -24 -152 1 -113 14 -151 51 -152 14 0
31 4 38 9 6 5 12 8 13 6 6 -31 5 -40 -7 -50 -11 -9 -21 -9 -43 1 -48 19 -65
-1 -33 -37 23 -28 50 -31 89 -10 25 13 33 25 38 58 9 54 10 313 1 327 -4 8
-15 8 -31 2 -15 -6 -27 -6 -30 0 -9 14 -51 12 -62 -2z m61 -54 c23 -22 23
-176 1 -194 -26 -22 -38 3 -40 82 -1 62 9 128 20 128 2 0 11 -7 19 -16z"/>
<path d="M3089 2041 c-22 -18 -24 -27 -25 -118 -1 -116 7 -143 45 -166 51 -30
111 10 111 74 0 16 -6 20 -27 17 -20 -2 -27 -8 -25 -20 1 -9 -6 -22 -17 -28
-31 -16 -43 17 -32 83 0 4 24 7 52 7 l51 0 -4 64 c-5 77 -25 106 -73 106 -18
0 -43 -9 -56 -19z m74 -53 c15 -23 1 -48 -26 -48 -20 0 -24 5 -22 24 6 48 27
58 48 24z"/>
<path d="M3283 2052 c-6 -4 -10 -62 -9 -152 l1 -145 25 -3 25 -3 1 106 c1 91
4 108 20 120 10 7 22 11 26 9 5 -3 8 13 8 34 0 35 -2 39 -20 35 -11 -3 -20
-10 -20 -15 0 -5 -5 -6 -10 -3 -6 4 -8 10 -6 14 6 9 -27 12 -41 3z"/>
<path d="M3419 2048 c-4 -38 -5 -275 -1 -285 2 -7 13 -13 23 -13 22 0 20 -12
23 160 1 84 -2 138 -9 142 -16 12 -35 9 -36 -4z"/>
<path d="M4385 1812 c-5 -4 -10 -18 -10 -32 0 -20 6 -26 28 -28 25 -3 27 -1
27 32 0 28 -4 36 -17 36 -10 0 -22 -4 -28 -8z"/>
<path d="M739 1533 c-9 -2 -21 -14 -26 -26 -13 -29 -10 -147 5 -173 6 -10 12
-15 12 -11 0 4 9 3 19 -2 13 -8 22 -7 29 2 14 19 20 53 11 68 -5 9 -11 6 -20
-14 -23 -51 -39 -33 -39 42 0 74 13 97 37 65 12 -16 15 -17 23 -4 17 27 -15
61 -51 53z"/>
<path d="M1119 1533 c-17 -4 -29 -32 -29 -66 0 -10 14 -31 30 -47 27 -27 41
-70 23 -70 -14 0 -35 17 -33 26 1 5 -3 10 -9 12 -14 5 -14 -23 -1 -49 14 -26
56 -25 70 2 16 29 4 68 -30 104 -22 22 -27 34 -20 45 9 13 13 11 30 -10 l20
-25 0 27 c0 21 -24 63 -33 57 -1 -1 -9 -3 -18 -6z"/>
<path d="M1794 1530 c-32 -13 -38 -27 -39 -102 -2 -59 1 -72 21 -94 15 -15 29
-22 37 -17 6 4 19 6 27 5 12 -2 16 9 17 48 2 53 -10 69 -44 56 -15 -6 -15 -7
0 -19 11 -8 15 -20 11 -34 -7 -27 -34 -31 -35 -5 -2 24 -2 94 0 115 1 24 28
22 36 -4 8 -25 31 -19 27 7 -6 32 -34 53 -58 44z"/>
<path d="M2739 1519 c-10 -10 -20 -31 -20 -46 -3 -74 -2 -92 11 -122 12 -29
16 -32 49 -29 l36 4 0 49 c0 44 -3 50 -22 53 -16 2 -23 -2 -23 -12 0 -9 5 -16
11 -16 17 0 6 -44 -12 -48 -20 -4 -26 31 -19 97 5 48 28 67 37 32 6 -23 18
-28 26 -8 16 43 -41 79 -74 46z"/>
<path d="M2953 1533 c-8 -3 -13 -23 -13 -52 0 -26 -5 -52 -11 -58 -18 -18 -17
-61 2 -82 23 -24 108 -29 88 -5 -8 9 -8 22 -2 41 11 30 7 53 -8 53 -6 0 -7 -4
-4 -10 3 -5 2 -10 -3 -10 -17 0 -21 26 -8 51 20 38 -7 84 -41 72z m27 -170 c0
-18 -27 -16 -33 1 -3 8 -3 24 0 36 l6 22 13 -23 c7 -13 13 -30 14 -36z"/>
<path d="M3571 1530 c-7 -3 -14 -23 -18 -43 -5 -31 -1 -40 26 -67 33 -33 41
-70 16 -70 -14 0 -19 12 -16 33 0 4 -6 7 -14 7 -21 0 -19 -43 3 -63 28 -25 64
-2 69 44 3 29 -2 40 -27 64 -29 28 -40 65 -20 65 6 0 14 -9 18 -20 5 -12 12
-16 20 -11 10 6 11 13 1 34 -12 27 -39 39 -58 27z"/>
<path d="M839 1514 c-14 -17 -20 -167 -7 -179 4 -4 22 -9 42 -12 33 -4 35 -3
42 32 3 20 4 38 1 41 -3 4 -2 17 3 30 6 14 6 26 -1 29 -5 4 -7 10 -4 15 3 5 1
20 -5 34 -11 30 -50 36 -71 10z m53 -31 c2 -10 4 -43 3 -73 0 -48 -2 -55 -20
-55 -17 0 -20 8 -23 59 -2 32 -1 65 2 72 8 20 33 17 38 -3z"/>
<path d="M956 1428 c0 -69 4 -103 12 -106 13 -4 16 12 13 73 -2 32 0 38 10 28
7 -7 14 -21 16 -32 9 -63 42 -95 44 -43 2 57 -2 176 -6 181 -12 11 -19 -14
-18 -59 2 -28 -2 -50 -7 -50 -6 0 -10 8 -10 18 0 10 -3 22 -7 26 -4 3 -8 14
-9 22 -4 29 -13 44 -26 44 -10 0 -13 -25 -12 -102z"/>
<path d="M1210 1443 c1 -82 15 -134 33 -116 4 3 7 2 7 -4 0 -6 9 -9 19 -6 27
7 38 45 35 128 -2 86 -2 85 -14 85 -6 0 -10 -35 -10 -84 0 -84 -9 -108 -33
-88 -8 7 -12 32 -10 69 3 67 -3 103 -17 103 -6 0 -10 -37 -10 -87z"/>
<path d="M1348 1518 c-3 -11 -3 -170 1 -188 2 -11 70 -10 76 0 9 15 4 19 -26
23 -23 4 -24 7 -27 90 -2 78 -13 109 -24 75z"/>
<path d="M1446 1515 c-4 -10 1 -15 14 -15 18 0 20 -7 20 -88 0 -65 3 -89 13
-89 9 0 12 20 11 71 -1 85 4 106 22 106 8 0 14 7 14 15 0 11 -12 15 -44 15
-30 0 -46 -5 -50 -15z"/>
<path d="M1562 1428 c4 -133 22 -132 26 2 2 85 0 100 -13 100 -13 0 -15 -15
-13 -102z"/>
<path d="M1626 1508 c-2 -13 -4 -59 -3 -103 2 -62 5 -80 17 -80 10 0 14 13 15
47 0 26 5 52 11 58 8 8 8 24 1 55 -11 48 -34 60 -41 23z"/>
<path d="M1697 1523 c-3 -5 -4 -30 -3 -56 1 -26 -2 -51 -7 -54 -6 -3 -7 -1 -3
5 4 7 2 12 -4 12 -10 0 -9 -18 3 -78 5 -22 27 -38 35 -25 6 9 8 139 3 191 -1
13 -17 16 -24 5z"/>
<path d="M2020 1520 c0 -5 8 -13 17 -18 14 -8 17 -26 17 -96 0 -67 3 -86 14
-86 10 0 13 8 10 25 -3 14 -2 25 1 25 8 0 7 42 -1 56 -7 12 10 74 21 74 5 0
11 7 15 15 4 12 -4 15 -44 15 -28 0 -50 -4 -50 -10z"/>
<path d="M2138 1503 c-6 -55 7 -176 20 -181 8 -2 12 10 12 42 0 34 4 46 15 46
8 0 15 -3 16 -7 1 -5 2 -20 3 -34 3 -29 13 -49 25 -49 10 0 8 81 -2 98 -5 6
-5 18 0 25 25 40 -2 87 -52 87 -29 0 -34 -3 -37 -27z m60 -20 c12 -22 5 -43
-14 -43 -9 0 -14 11 -14 30 0 33 14 40 28 13z"/>
<path d="M2295 1511 c-3 -12 -8 -33 -11 -48 -2 -16 -9 -49 -15 -75 -10 -45 -7
-68 11 -68 4 0 11 11 14 25 4 14 13 25 21 25 8 0 17 -11 21 -25 3 -14 13 -25
21 -25 11 0 14 7 10 23 -3 12 -9 42 -12 67 -12 87 -21 115 -37 118 -9 2 -19
-6 -23 -17z m24 -95 c-13 -15 -18 -4 -11 29 6 30 6 30 12 5 4 -14 3 -29 -1
-34z"/>
<path d="M2399 1528 c-1 -2 -3 -49 -4 -105 l-2 -103 32 0 c51 0 66 26 66 110
0 40 -5 78 -12 86 -9 11 -75 21 -80 12z m55 -37 c4 -5 7 -35 7 -67 2 -54 -2
-61 -28 -67 -8 -2 -14 123 -6 136 6 10 21 9 27 -2z"/>
<path d="M2529 1528 c-7 -12 -5 -188 1 -199 17 -26 24 3 24 101 1 74 -2 100
-11 100 -7 0 -14 -1 -14 -2z"/>
<path d="M2589 1518 c-1 -7 -2 -55 -3 -106 -1 -77 1 -92 14 -90 10 2 15 17 16
45 1 24 7 49 13 57 8 10 10 24 5 38 -10 28 -11 34 -13 53 -1 18 -31 20 -32 3z"/>
<path d="M2658 1523 c-2 -4 -4 -29 -3 -55 1 -34 -2 -48 -12 -48 -14 0 -12 -25
6 -72 11 -30 26 -36 33 -15 10 29 3 190 -9 194 -6 2 -13 0 -15 -4z"/>
<path d="M3128 1518 c-8 -25 -2 -183 7 -188 6 -3 11 36 13 98 1 58 -1 102 -7
102 -5 0 -11 -6 -13 -12z"/>
<path d="M3190 1425 c0 -79 3 -105 13 -105 9 0 12 16 11 55 -1 30 1 55 5 55 4
0 14 -23 21 -51 14 -52 27 -69 39 -51 3 5 6 52 6 104 -1 74 -4 93 -15 93 -11
0 -14 -13 -14 -52 0 -63 -10 -60 -27 7 -7 28 -19 50 -26 50 -10 0 -13 -25 -13
-105z"/>
<path d="M3315 1520 c-3 -5 -4 -14 -1 -18 3 -5 8 -31 12 -58 13 -103 21 -126
41 -122 9 2 18 14 20 28 2 14 5 39 8 55 17 110 18 128 5 123 -14 -4 -18 -19
-22 -81 -5 -81 -24 -42 -37 76 -1 10 -19 9 -26 -3z"/>
<path d="M3443 1427 l0 -103 39 -3 c33 -2 39 1 36 16 -2 10 -9 19 -16 19 -6 1
-16 2 -22 3 -5 0 -10 15 -10 31 0 25 4 30 25 30 18 0 23 4 18 16 -3 9 -13 14
-24 11 -15 -4 -19 1 -19 25 0 25 4 29 22 26 15 -2 24 3 26 15 3 14 -4 17 -36
17 l-39 0 0 -103z"/>
<path d="M3660 1519 c0 -6 9 -13 20 -16 18 -5 20 -14 20 -95 0 -67 3 -89 12
-86 9 3 13 31 13 87 1 67 4 85 18 92 31 18 18 29 -33 29 -30 0 -50 -4 -50 -11z"/>
<path d="M3782 1428 c2 -73 7 -103 16 -106 7 -2 13 2 11 9 -3 28 1 142 6 138
2 -3 7 -30 11 -60 4 -29 8 -61 9 -68 1 -8 7 -17 14 -19 6 -2 11 0 9 5 -1 4 1
22 5 38 4 17 9 41 12 54 8 44 13 33 12 -30 -1 -41 3 -64 11 -67 9 -3 12 24 12
102 0 98 -1 106 -19 106 -22 0 -29 -17 -33 -72 -2 -35 -17 -55 -19 -25 -5 71
-15 97 -39 97 -20 0 -21 -5 -18 -102z"/>
<path d="M3950 1425 l0 -106 38 3 c43 3 54 33 12 33 -19 0 -24 5 -23 23 2 40
3 42 23 42 28 0 25 19 -5 30 -22 8 -24 13 -15 30 6 11 20 20 31 20 36 0 14 25
-24 28 l-37 3 0 -106z"/>
<path d="M4058 1483 c-5 -84 3 -163 16 -163 9 0 13 16 12 51 -1 28 2 53 6 55
4 3 9 0 9 -5 7 -56 45 -128 50 -93 4 24 4 179 1 190 -10 30 -21 7 -24 -50 -3
-66 -8 -64 -29 15 -7 26 -19 47 -26 47 -7 0 -13 -18 -15 -47z"/>
<path d="M4180 1522 c0 -4 8 -14 18 -23 15 -12 18 -30 17 -92 -1 -54 3 -78 12
-81 18 -7 20 1 18 88 -2 68 1 79 16 83 10 3 15 11 12 19 -5 15 -93 21 -93 6z"/>
<path d="M1901 1342 c0 -18 16 -61 19 -52 8 24 4 60 -7 64 -8 3 -13 -1 -12
-12z"/>
<path d="M3956 1146 c-19 -31 -28 -93 -18 -131 15 -56 91 -46 108 13 12 46 13
81 2 88 -6 4 -8 3 -5 -2 9 -16 -30 -94 -48 -94 -18 0 -18 13 -2 60 7 19 12 41
11 48 -1 6 -2 19 -3 27 -2 23 -27 18 -45 -9z m19 -36 c-3 -5 -2 -10 4 -10 7 0
7 -9 -1 -25 -7 -15 -14 -21 -18 -15 -9 15 0 60 12 60 5 0 6 -4 3 -10z"/>
<path d="M1095 1023 c-12 -2 -26 -12 -32 -22 -11 -17 -8 -20 20 -25 18 -3 41
-8 53 -10 41 -8 94 -35 94 -48 0 -8 -13 -15 -32 -16 -18 -1 -53 -5 -78 -8 -25
-4 -52 -7 -62 -8 -21 -3 -48 -25 -48 -40 1 -29 20 -40 77 -41 32 -1 71 2 88 6
18 6 33 5 39 -1 7 -7 5 -10 -5 -10 -17 0 -59 -40 -59 -57 0 -5 9 -18 21 -29
27 -24 124 -24 181 0 9 4 22 8 30 10 21 3 77 39 82 53 7 18 -33 17 -53 -1 -39
-33 -179 -58 -210 -37 -19 12 50 48 111 57 55 9 78 21 78 40 0 14 -12 15 -82
10 -148 -10 -229 -12 -234 -5 -5 9 32 18 76 20 53 1 111 22 126 44 12 18 11
24 -10 48 -13 15 -30 27 -37 27 -8 0 -29 9 -46 20 -18 11 -33 17 -33 15 0 -3
-8 -2 -17 3 -10 4 -27 7 -38 5z"/>
<path d="M3795 955 c-15 -32 -27 -77 -27 -99 0 -39 -29 -96 -48 -96 -9 0 -31
56 -24 62 2 2 6 36 9 74 5 57 3 73 -9 83 -13 11 -16 11 -17 0 0 -8 -2 -23 -5
-34 -2 -11 -5 -37 -6 -57 -2 -26 -9 -41 -24 -48 -36 -20 -86 -112 -72 -132 6
-10 -126 -123 -165 -143 -44 -22 -77 -24 -77 -5 0 18 71 97 108 120 23 14 42
28 42 33 0 4 7 7 15 7 8 0 15 9 15 20 0 17 -4 18 -24 10 -14 -5 -33 -13 -43
-18 -111 -58 -152 -49 -82 18 44 42 96 70 129 70 24 0 41 41 24 58 -10 9 -19
10 -34 2 -11 -6 -20 -7 -20 -3 0 4 -4 4 -8 -2 -4 -5 -25 -19 -47 -30 -36 -18
-124 -97 -126 -113 0 -4 -2 -15 -4 -25 -2 -10 6 -24 19 -32 22 -14 44 -12 99
10 10 4 -9 -20 -43 -53 -58 -58 -72 -90 -52 -117 35 -48 218 44 259 131 14 29
19 31 41 23 26 -10 57 5 46 22 -3 5 -1 9 4 9 6 0 13 12 16 26 6 24 8 25 25 10
33 -30 65 -13 74 41 5 31 16 40 41 36 15 -3 32 1 41 11 9 9 13 16 9 16 -5 0
-3 5 4 12 7 7 12 20 12 30 0 10 5 18 11 18 7 0 9 -19 6 -52 -3 -29 -6 -53 -7
-53 -8 0 -7 -43 2 -58 10 -20 11 -20 21 -1 6 10 11 50 13 89 1 38 4 88 7 110
3 22 3 32 1 23 -7 -24 -24 -23 -24 1 0 11 -5 23 -10 26 -6 4 -8 11 -5 16 4 5
2 9 -3 9 -18 0 -29 -25 -30 -67 -3 -66 -32 -124 -45 -88 -7 17 -4 36 17 94 11
30 13 48 6 55 -6 6 -18 -10 -35 -49z m-135 -175 c-14 -48 -43 -91 -52 -77 -4
6 -8 15 -8 18 0 8 59 89 64 89 3 0 1 -13 -4 -30z"/>
<path d="M1396 702 c-26 -6 -44 -25 -51 -55 -5 -20 -1 -29 18 -42 33 -21 89
-25 95 -6 3 8 0 11 -6 7 -16 -10 -62 12 -62 29 0 8 9 15 20 15 11 0 20 5 20
11 0 5 -6 7 -12 3 -10 -5 -10 -4 -2 5 14 16 52 22 60 10 3 -6 -3 -13 -15 -16
-29 -7 -17 -20 16 -17 15 1 34 2 41 3 16 1 15 26 -2 40 -16 13 -88 21 -120 13z"/>
<path d="M1829 655 c-138 -57 -198 -99 -199 -137 0 -27 15 -29 65 -8 62 27 86
26 51 -1 -47 -37 -28 -64 37 -49 30 6 38 4 56 -16 24 -28 30 -29 67 -9 27 14
29 14 32 -6 5 -28 24 -33 69 -18 34 11 38 10 51 -10 17 -25 42 -27 82 -6 17 9
40 13 54 9 14 -3 27 -1 31 7 5 7 4 10 -3 5 -21 -13 -23 14 -3 36 23 24 26 34
11 43 -6 4 -27 -10 -47 -30 -40 -40 -64 -55 -88 -55 -23 0 -4 30 34 55 35 23
36 42 2 37 -21 -3 -42 -17 -76 -49 -7 -7 -24 -15 -39 -19 -22 -5 -26 -3 -26
15 0 11 8 25 19 30 25 14 34 60 12 63 -9 0 -23 2 -31 2 -38 4 -126 -25 -145
-46 -14 -16 -29 -22 -47 -20 -38 4 -35 14 12 41 22 12 40 24 40 27 0 12 -46
21 -57 12 -7 -6 -13 -8 -13 -4 0 3 -10 2 -22 -3 -45 -16 -78 -21 -78 -12 0 5
9 13 21 16 38 12 208 95 213 104 12 19 -34 17 -85 -4z m141 -166 c-31 -23 -91
-42 -103 -30 -12 12 16 31 70 45 58 15 66 11 33 -15z"/>
<path d="M2852 618 c-111 -144 -131 -183 -111 -219 14 -27 22 -24 63 26 43 51
62 59 40 18 -19 -38 -18 -53 5 -53 24 0 95 56 81 65 -5 3 -10 1 -10 -4 0 -6
-7 -11 -15 -11 -8 0 -15 -6 -15 -12 0 -9 -3 -9 -9 1 -10 16 1 44 26 69 15 15
9 32 -12 32 -7 0 -37 -22 -67 -50 -29 -27 -55 -44 -57 -38 -2 6 3 16 10 22 26
20 139 178 133 187 -11 18 -30 8 -62 -33z"/>
<path d="M3032 565 c-63 -43 -89 -94 -66 -130 15 -23 20 -23 77 -12 11 2 30
19 62 57 l20 23 -24 -14 c-13 -8 -33 -20 -45 -26 -31 -18 -55 -16 -52 5 2 9 8
17 14 17 6 0 27 15 47 32 26 23 35 38 31 51 -8 24 -25 24 -64 -3z m28 -21 c0
-11 -35 -49 -48 -51 -19 -4 -14 14 10 37 21 20 38 26 38 14z"/>
<path d="M2685 550 c-10 -11 -26 -20 -36 -20 -28 0 -49 -11 -49 -25 0 -7 -6
-16 -12 -18 -7 -3 -3 -6 10 -6 29 -1 28 -9 -5 -43 -15 -15 -22 -28 -16 -28 5
0 10 -12 9 -26 -2 -44 51 -38 102 12 20 20 14 27 -10 12 -47 -30 -65 8 -27 56
11 14 29 26 39 26 19 0 32 21 35 58 2 27 -16 29 -40 2z"/>
<path d="M2310 474 c-25 -14 -48 -31 -52 -37 -14 -22 -8 -62 10 -73 22 -14 90
-7 109 11 8 8 19 15 24 15 5 0 9 4 9 9 0 6 -15 4 -33 -4 -46 -19 -103 -2 -67
20 5 3 7 12 4 20 -4 8 6 20 25 30 27 13 31 13 31 1 0 -8 -9 -18 -20 -21 -25
-8 -27 -25 -2 -18 31 8 76 49 68 61 -12 20 -58 13 -106 -14z"/>
</g>
</svg>
